<svg width="275" height="58" viewBox="0 0 275 58" fill="none" xmlns="http://www.w3.org/2000/svg">
<path d="M79.2028 20.3407V26.7084H93.8953V33.123H79.2028V39.582H95.9624V45.9967H71.3724V13.9265H95.4789V20.3407H79.2028" fill="#94D336"/>
<path d="M112.943 33.3977L108.851 38.1165V45.9967H101.022V13.9265H108.851V27.8082L120.641 13.9265H129.703L118.265 27.2132L130.451 45.9967H121.081L112.943 33.3977" fill="#94D336"/>
<path d="M138.984 29.9615C138.984 35.3679 142.988 39.5361 147.695 39.5361C152.445 39.5361 156.229 35.3679 156.229 29.9615C156.229 24.555 152.445 20.4782 147.695 20.4782C142.944 20.4782 138.984 24.555 138.984 29.9615ZM164.279 29.9157C164.279 39.2615 157.152 46.3625 147.607 46.3625C138.106 46.3625 130.979 39.3075 130.979 29.9157C130.979 20.5697 138.106 13.6517 147.607 13.6517C157.152 13.6517 164.279 20.6152 164.279 29.9157" fill="#94D336"/>
<path d="M200.218 18.5079L198.106 21.3032C195.731 18.7836 192.388 17.2708 189.001 17.2708C182.049 17.2708 176.463 22.8606 176.463 29.9158C176.463 36.9251 182.049 42.5606 189.001 42.5606C192.388 42.5606 195.687 41.0948 198.106 38.7123L200.262 41.2321C197.226 44.2094 193.091 46.1798 188.824 46.1798C179.939 46.1798 172.9 38.987 172.9 29.9158C172.9 20.9358 180.027 13.8347 188.957 13.8347C193.179 13.8347 197.27 15.6219 200.218 18.5079Z" fill="#FCFCFC"/>
<path d="M210.115 17.4541V27.991H225.644V31.5189H210.115V42.5149H228.063V45.9967H206.596V13.9265H227.49V17.4541H210.115" fill="#FCFCFC"/>
<path d="M252.257 42.5149V45.9967H235.232V13.9265H238.752V42.5149H252.257Z" fill="#FCFCFC"/>
<path d="M275 42.5149V45.9967H257.974V13.9265H261.495V42.5149H275Z" fill="#FCFCFC"/>
<path d="M29.6845 0.196916L58.7885 28.6478H51.8213V44.9812H23.4773L23.4426 35.7597L14.5219 35.7619L14.554 44.9812H7.51567V28.8982H0L29.6845 0.196916Z" fill="#94D336"/>
<path d="M2.17261 40.7562C2.17261 40.7562 4.75892 43.2949 8.96994 43.1763C16.5116 42.962 23.3549 36.1253 34.5489 35.401C45.7437 34.6744 55.7266 45.5431 55.7266 45.5431C55.7266 45.5431 44.9158 56.652 28.9345 56.5222C12.9531 56.3893 2.17261 40.7562 2.17261 40.7562Z" fill="#A5A6A7"/>
<path d="M49.3375 44.5703L49.2038 44.838C49.2038 44.838 44.3618 43.508 40.4205 43.9257C36.1668 44.3777 31.2841 45.5235 26.7163 46.2196C20.9517 47.0982 15.8964 45.6944 15.8964 45.6944C15.8964 45.6944 19.8523 46.6114 26.4303 45.7253C30.8519 45.1286 36.0683 43.1086 40.718 42.9762C44.29 42.8751 49.3375 44.5703 49.3375 44.5703" fill="#FCFCFC"/>
<path d="M2.45114 42.0242C2.45114 42.0242 5.01108 44.5372 9.17798 44.4191C16.6411 44.2074 23.4131 37.4421 34.4892 36.7251C45.5664 36.0068 55.4455 46.7616 55.4455 46.7616C55.4455 46.7616 44.7486 57.7541 28.9338 57.6255C13.1196 57.4945 2.45114 42.0242 2.45114 42.0242Z" fill="#FCFCFC"/>
<path d="M31.3057 44.4853C18.1579 47.8671 13.4526 47.0085 13.4526 47.0085C13.4526 47.0085 19.8372 48.1283 30.9151 45.4922C39.286 43.5 47.1913 46.4879 47.1913 46.4879L47.372 45.9642C47.372 45.9642 38.7946 42.5585 31.3057 44.4853" fill="#A5A6A7"/>
</svg>
